<?xml version="1.0" encoding="UTF-8" standalone="no"?>
<!DOCTYPE svg PUBLIC "-//W3C//DTD SVG 20010904//EN"
              "http://www.w3.org/TR/2001/REC-SVG-20010904/DTD/svg10.dtd">

<svg xmlns="http://www.w3.org/2000/svg"
     width="86.6988mm" height="86.6988mm"
     viewBox="0 0 1024 1024">
  <path id="Selection"
        fill="#FBC342" stroke="black" stroke-width="1"
        d="M 332.00,49.00
           C 327.99,52.45 315.58,56.04 310.00,58.25
             306.83,59.51 302.94,60.55 302.00,64.00
             296.26,64.75 289.55,68.55 284.00,70.86
             268.97,77.10 254.71,86.00 241.00,94.69
             241.00,94.69 225.00,105.00 225.00,105.00
             225.00,105.00 226.00,107.00 226.00,107.00
             216.12,109.35 215.52,113.70 207.96,118.98
             195.80,127.46 172.20,147.08 162.00,157.54
             162.00,157.54 152.16,167.07 152.16,167.07
             152.16,167.07 134.71,187.70 134.71,187.70
             134.71,187.70 127.21,196.04 127.21,196.04
             127.21,196.04 115.43,211.83 115.43,211.83
             115.43,211.83 109.10,218.75 109.10,218.75
             109.10,218.75 105.53,224.84 105.53,224.84
             105.53,224.84 99.51,232.01 99.51,232.01
             99.51,232.01 94.42,240.68 94.42,240.68
             94.42,240.68 83.95,256.30 83.95,256.30
             83.95,256.30 79.32,265.70 79.32,265.70
             79.32,265.70 73.71,275.01 73.71,275.01
             73.71,275.01 69.96,284.00 69.96,284.00
             69.96,284.00 58.58,306.00 58.58,306.00
             58.58,306.00 49.76,329.00 49.76,329.00
             49.76,329.00 46.37,336.00 46.37,336.00
             46.37,336.00 43.46,345.00 43.46,345.00
             43.46,345.00 35.48,370.96 35.48,370.96
             35.48,370.96 32.94,377.17 32.94,377.17
             32.94,377.17 28.90,392.00 28.90,392.00
             28.90,392.00 27.11,402.00 27.11,402.00
             25.52,409.00 22.15,422.41 24.00,429.00
             20.06,432.06 20.77,436.65 22.00,441.00
             22.00,441.00 19.00,440.00 19.00,440.00
             19.00,440.00 15.82,476.00 15.82,476.00
             15.82,476.00 15.82,491.47 15.82,491.47
             15.82,491.47 17.00,493.00 17.00,493.00
             13.84,497.42 15.00,503.77 15.00,509.00
             15.00,509.00 16.72,548.00 16.72,548.00
             16.72,548.00 18.54,570.17 18.54,570.17
             18.54,570.17 21.56,583.00 21.56,583.00
             21.56,583.00 30.73,632.00 30.73,632.00
             30.73,632.00 36.96,651.00 36.96,651.00
             36.96,651.00 45.37,678.00 45.37,678.00
             45.37,678.00 50.95,691.00 50.95,691.00
             50.95,691.00 58.91,711.00 58.91,711.00
             58.91,711.00 68.24,729.00 68.24,729.00
             70.81,734.22 71.44,740.33 77.00,743.00
             76.63,750.83 85.36,761.50 89.57,768.04
             89.57,768.04 97.34,781.00 97.34,781.00
             97.34,781.00 117.13,807.04 117.13,807.04
             117.13,807.04 124.92,817.83 124.92,817.83
             124.92,817.83 130.76,824.04 130.76,824.04
             130.76,824.04 135.22,830.00 135.22,830.00
             135.22,830.00 142.65,838.16 142.65,838.16
             142.65,838.16 147.22,844.38 147.22,844.38
             147.22,844.38 162.05,859.83 162.05,859.83
             162.05,859.83 170.04,866.27 170.04,866.27
             170.04,866.27 178.00,873.74 178.00,873.74
             178.00,873.74 183.83,878.24 183.83,878.24
             183.83,878.24 189.61,883.96 189.61,883.96
             189.61,883.96 197.91,889.92 197.91,889.92
             197.91,889.92 205.04,896.49 205.04,896.49
             205.04,896.49 213.68,902.42 213.68,902.42
             213.68,902.42 222.01,909.52 222.01,909.52
             222.01,909.52 235.54,918.06 235.54,918.06
             235.54,918.06 243.04,923.62 243.04,923.62
             243.04,923.62 255.00,930.57 255.00,930.57
             255.00,930.57 263.58,935.97 263.58,935.97
             263.58,935.97 278.00,942.31 278.00,942.31
             278.00,942.31 293.00,950.89 293.00,950.89
             293.00,950.89 308.00,957.13 308.00,957.13
             308.00,957.13 320.00,962.85 320.00,962.85
             320.00,962.85 368.00,979.37 368.00,979.37
             368.00,979.37 411.00,990.49 411.00,990.49
             411.00,990.49 443.00,995.42 443.00,995.42
             443.00,995.42 461.01,997.15 461.01,997.15
             465.53,997.64 468.11,998.80 472.00,996.00
             476.83,999.62 485.12,998.99 491.00,999.00
             491.00,999.00 521.00,999.00 521.00,999.00
             545.06,998.97 586.44,993.84 610.00,988.71
             610.00,988.71 623.00,984.88 623.00,984.88
             623.00,984.88 655.96,975.97 655.96,975.97
             655.96,975.97 663.09,972.97 663.09,972.97
             663.09,972.97 694.00,962.06 694.00,962.06
             694.00,962.06 702.00,958.09 702.00,958.09
             702.00,958.09 719.99,950.37 719.99,950.37
             719.99,950.37 727.17,945.89 727.17,945.89
             727.17,945.89 740.00,939.52 740.00,939.52
             746.36,936.47 751.92,936.20 756.00,929.00
             761.68,929.53 765.40,925.98 770.00,922.93
             770.00,922.93 782.42,914.22 782.42,914.22
             782.42,914.22 788.95,910.52 788.95,910.52
             788.95,910.52 798.02,902.79 798.02,902.79
             810.00,894.66 821.25,884.83 832.17,875.34
             832.17,875.34 854.55,855.61 854.55,855.61
             854.55,855.61 890.01,814.42 890.01,814.42
             890.01,814.42 903.74,796.21 903.74,796.21
             908.73,790.22 915.88,783.04 917.00,775.00
             922.45,773.09 926.72,764.51 926.00,759.00
             934.38,754.67 937.04,744.02 940.70,736.00
             940.70,736.00 947.18,724.00 947.18,724.00
             951.73,715.33 963.94,687.86 966.23,679.00
             967.85,672.75 971.47,668.44 970.00,662.00
             974.66,660.19 974.26,656.36 975.57,652.00
             977.87,644.33 982.70,631.68 981.00,624.00
             985.54,620.84 987.50,606.59 988.43,601.00
             988.43,601.00 992.87,576.00 992.87,576.00
             992.87,576.00 992.87,569.00 992.87,569.00
             992.87,569.00 994.89,550.08 994.89,550.08
             994.89,550.08 995.87,540.00 995.87,540.00
             995.96,534.49 998.79,519.40 995.00,516.00
             998.35,511.32 997.01,502.69 997.00,497.00
             996.99,493.68 997.60,491.33 995.04,489.00
             997.02,480.69 995.66,474.18 995.04,466.00
             995.04,466.00 989.61,422.00 989.61,422.00
             988.49,415.78 988.32,404.87 983.00,401.00
             984.78,394.53 982.38,390.38 981.00,384.00
             981.00,384.00 975.91,364.00 975.91,364.00
             975.91,364.00 968.00,343.00 968.00,343.00
             963.42,329.13 953.59,304.91 946.96,292.09
             946.96,292.09 941.43,283.00 941.43,283.00
             941.43,283.00 935.56,269.01 935.56,269.01
             935.56,269.01 929.91,259.96 929.91,259.96
             929.91,259.96 921.31,245.04 921.31,245.04
             921.31,245.04 916.13,237.91 916.13,237.91
             916.13,237.91 908.56,226.00 908.56,226.00
             908.56,226.00 898.66,213.91 898.66,213.91
             898.66,213.91 894.03,207.09 894.03,207.09
             894.03,207.09 887.80,199.96 887.80,199.96
             887.80,199.96 881.10,191.17 881.10,191.17
             881.10,191.17 875.19,184.98 875.19,184.98
             869.75,178.88 868.95,175.27 861.00,171.00
             860.32,164.77 850.79,157.89 846.39,153.28
             846.39,153.28 814.00,125.52 814.00,125.52
             814.00,125.52 803.17,117.64 803.17,117.64
             797.71,113.24 790.07,105.49 783.00,105.00
             781.61,98.02 769.07,93.76 763.42,89.72
             763.42,89.72 735.00,73.19 735.00,73.19
             735.00,73.19 726.00,69.82 726.00,69.82
             726.00,69.82 708.00,60.58 708.00,60.58
             708.00,60.58 686.00,51.94 686.00,51.94
             686.00,51.94 678.00,48.31 678.00,48.31
             678.00,48.31 650.00,39.44 650.00,39.44
             650.00,39.44 630.00,32.88 630.00,32.88
             630.00,32.88 578.42,23.07 578.42,23.07
             578.42,23.07 570.00,21.27 570.00,21.27
             570.00,21.27 519.00,17.00 519.00,17.00
             496.29,16.84 462.94,17.50 441.00,21.32
             441.00,21.32 431.00,23.57 431.00,23.57
             413.42,26.54 393.04,29.32 376.09,34.50
             376.09,34.50 359.00,40.62 359.00,40.62
             359.00,40.62 348.00,43.69 348.00,43.69
             348.00,43.69 332.00,49.00 332.00,49.00 Z
           M 441.00,22.00
           C 441.00,22.00 441.00,23.00 441.00,23.00
             441.00,23.00 440.00,22.00 440.00,22.00
             440.00,22.00 441.00,22.00 441.00,22.00 Z
           M 913.00,441.00
           C 916.17,443.79 916.18,450.87 916.72,455.00
             916.72,455.00 919.09,481.00 919.09,481.00
             919.09,481.00 920.00,493.00 920.00,493.00
             920.00,493.00 920.00,521.00 920.00,521.00
             920.00,521.00 918.96,533.00 918.96,533.00
             918.96,533.00 918.96,542.00 918.96,542.00
             917.40,557.07 912.13,590.58 908.53,605.00
             908.53,605.00 902.43,626.00 902.43,626.00
             895.14,651.58 884.71,676.50 872.30,700.00
             872.30,700.00 847.48,742.00 847.48,742.00
             833.70,762.45 817.68,780.75 800.42,798.28
             800.42,798.28 787.00,811.91 787.00,811.91
             739.11,856.53 676.11,890.58 613.00,907.85
             592.64,913.42 552.76,920.75 532.00,921.00
             532.00,921.00 513.28,921.73 513.28,921.73
             513.28,921.73 479.00,921.00 479.00,921.00
             479.00,921.00 469.00,920.09 469.00,920.09
             451.36,918.86 435.26,915.88 418.00,912.21
             342.57,896.18 267.15,857.00 213.58,801.17
             213.58,801.17 206.09,793.99 206.09,793.99
             195.55,782.93 185.12,771.18 175.90,759.00
             142.86,715.37 117.78,662.94 103.88,610.00
             99.67,593.95 92.19,551.99 92.00,536.00
             92.00,536.00 91.00,516.00 91.00,516.00
             91.00,516.00 91.00,499.00 91.00,499.00
             91.00,499.00 92.00,484.00 92.00,484.00
             92.35,453.64 99.96,417.00 108.98,388.00
             108.98,388.00 113.08,374.00 113.08,374.00
             113.08,374.00 120.55,355.00 120.55,355.00
             147.27,287.66 188.30,230.54 245.00,185.00
             278.95,157.73 319.93,133.94 361.00,119.31
             361.00,119.31 380.00,112.34 380.00,112.34
             408.22,103.33 437.56,97.78 467.00,94.83
             467.00,94.83 489.00,93.00 489.00,93.00
             489.00,93.00 519.00,93.00 519.00,93.00
             519.00,93.00 531.00,93.91 531.00,93.91
             555.81,95.61 580.81,98.82 605.00,104.89
             718.25,133.34 817.41,208.89 871.26,313.00
             871.26,313.00 877.74,325.00 877.74,325.00
             890.05,350.26 899.71,376.85 906.88,404.00
             906.88,404.00 912.08,428.00 912.08,428.00
             912.95,433.13 914.24,435.80 913.00,441.00 Z" />,

  <path id="Selection #1"
        fill="#FBC342" stroke="black" stroke-width="1"
        d="M 503.00,133.00
           C 501.80,140.80 499.93,142.89 498.35,149.00
             498.35,149.00 492.00,173.00 492.00,173.00
             492.00,173.00 488.31,182.00 488.31,182.00
             486.82,186.85 486.06,198.07 482.44,201.40
             480.20,203.47 471.58,203.10 468.00,203.58
             468.00,203.58 459.00,204.28 459.00,204.28
             459.00,204.28 429.00,209.42 429.00,209.42
             429.00,209.42 406.00,216.64 406.00,216.64
             406.00,216.64 398.00,218.89 398.00,218.89
             375.64,226.33 352.93,238.10 333.00,250.59
             333.00,250.59 322.00,258.57 322.00,258.57
             322.00,258.57 302.01,273.32 302.01,273.32
             302.01,273.32 295.72,279.68 295.72,279.68
             295.72,279.68 288.00,286.09 288.00,286.09
             288.00,286.09 268.46,307.01 268.46,307.01
             252.59,325.90 238.88,348.84 228.11,371.00
             220.93,385.77 216.11,401.47 211.00,417.00
             211.00,417.00 202.89,443.00 202.89,443.00
             199.58,456.24 193.13,495.72 193.00,509.00
             193.00,509.00 192.17,529.87 192.17,529.87
             192.17,529.87 195.28,569.00 195.28,569.00
             195.28,569.00 198.60,586.00 198.60,586.00
             198.60,586.00 204.44,612.00 204.44,612.00
             204.44,612.00 211.19,630.00 211.19,630.00
             224.48,664.29 242.89,693.00 269.00,719.00
             280.14,730.09 292.22,740.07 305.00,749.25
             308.44,751.73 319.52,757.14 320.77,760.18
             321.67,762.37 320.23,765.80 319.59,768.00
             317.78,774.22 317.30,781.96 313.00,787.00
             313.52,792.12 311.84,797.26 310.19,802.09
             309.38,804.47 307.59,809.17 308.61,811.58
             309.70,814.15 318.21,816.55 321.00,817.58
             327.21,819.86 327.66,818.97 330.72,819.93
             330.72,819.93 346.00,825.19 346.00,825.19
             352.24,827.19 356.25,829.51 363.00,829.00
             364.06,832.23 368.01,831.86 371.00,832.00
             371.00,832.00 379.55,804.91 379.55,804.91
             379.55,804.91 383.00,787.00 383.00,787.00
             402.73,794.38 413.43,796.29 434.00,799.00
             433.60,807.11 432.21,806.30 429.97,813.00
             429.97,813.00 424.30,834.00 424.30,834.00
             423.79,836.55 421.34,842.91 422.21,844.74
             424.61,849.79 434.33,848.29 436.00,852.00
             444.74,851.25 456.49,859.03 465.00,862.00
             465.00,862.00 465.00,860.00 465.00,860.00
             465.00,860.00 476.00,866.00 476.00,866.00
             476.00,866.00 484.00,868.00 484.00,868.00
             487.94,860.26 486.02,860.65 488.09,854.00
             488.09,854.00 496.32,831.00 496.32,831.00
             498.15,824.99 496.54,821.78 501.00,817.00
             500.63,812.43 503.64,803.75 508.11,801.72
             508.11,801.72 533.00,797.20 533.00,797.20
             543.99,795.11 564.28,788.26 574.00,783.08
             580.15,779.80 586.36,776.15 593.00,773.99
             595.44,773.14 599.29,772.46 601.57,773.99
             604.25,775.86 605.97,789.21 606.79,793.00
             606.79,793.00 613.83,827.00 613.83,827.00
             614.41,832.48 615.58,847.50 618.30,851.72
             620.32,854.87 624.65,855.05 628.00,855.89
             628.00,855.89 640.00,859.57 640.00,859.57
             640.00,859.57 650.00,862.04 650.00,862.04
             652.58,862.80 658.26,865.21 660.70,864.31
             663.89,863.13 665.70,853.19 666.42,850.00
             666.42,850.00 677.11,811.00 677.11,811.00
             677.11,811.00 686.25,781.00 686.25,781.00
             686.25,781.00 706.65,709.00 706.65,709.00
             706.65,709.00 708.75,700.00 708.75,700.00
             708.75,700.00 711.85,690.00 711.85,690.00
             711.85,690.00 720.12,662.00 720.12,662.00
             727.83,642.29 744.43,645.24 761.00,648.55
             761.00,648.55 778.00,651.99 778.00,651.99
             780.99,652.67 791.59,655.93 793.73,655.23
             796.58,654.30 797.81,648.62 798.58,646.00
             798.58,646.00 804.04,626.00 804.04,626.00
             804.04,626.00 807.26,615.05 807.26,615.05
             807.80,609.12 796.19,608.36 792.00,607.25
             792.00,607.25 767.00,599.43 767.00,599.43
             767.00,599.43 754.00,596.76 754.00,596.76
             754.00,596.76 743.00,593.34 743.00,593.34
             743.00,593.34 725.00,587.75 725.00,587.75
             725.00,587.75 717.00,585.96 717.00,585.96
             717.00,585.96 695.00,579.15 695.00,579.15
             695.00,579.15 678.00,575.26 678.00,575.26
             678.00,575.26 651.00,566.75 651.00,566.75
             651.00,566.75 643.00,564.96 643.00,564.96
             643.00,564.96 625.00,559.48 625.00,559.48
             625.00,559.48 603.00,553.96 603.00,553.96
             603.00,553.96 578.00,546.04 578.00,546.04
             578.00,546.04 570.00,544.25 570.00,544.25
             570.00,544.25 531.00,533.00 531.00,533.00
             531.00,533.00 527.97,544.00 527.97,544.00
             527.97,544.00 521.67,564.00 521.67,564.00
             520.74,566.84 518.32,573.84 519.59,576.57
             520.71,578.98 526.48,579.86 529.00,580.67
             529.00,580.67 557.00,589.86 557.00,589.86
             561.66,591.55 575.49,597.03 578.96,599.63
             594.47,611.26 587.98,627.73 583.74,643.00
             583.74,643.00 581.35,654.00 581.35,654.00
             581.35,654.00 570.83,688.00 570.83,688.00
             564.24,702.96 551.02,722.64 538.70,733.41
             529.94,741.06 511.26,752.29 500.00,755.41
             480.76,760.74 460.45,759.66 441.00,756.59
             441.00,756.59 431.00,754.96 431.00,754.96
             431.00,754.96 421.00,750.91 421.00,750.91
             400.79,742.48 385.43,732.84 371.29,715.72
             350.90,691.01 343.10,657.54 343.02,626.00
             343.02,626.00 343.02,597.00 343.02,597.00
             344.12,570.32 349.78,538.09 355.58,512.00
             355.58,512.00 359.55,494.00 359.55,494.00
             359.55,494.00 361.26,483.83 361.26,483.83
             361.26,483.83 370.97,454.00 370.97,454.00
             370.97,454.00 382.11,420.00 382.11,420.00
             382.11,420.00 388.83,405.00 388.83,405.00
             398.69,382.40 408.48,360.48 422.41,340.00
             434.58,322.11 438.92,316.00 453.55,299.83
             458.74,294.10 463.39,289.00 469.42,284.04
             491.34,266.03 519.71,256.32 548.00,256.00
             590.37,255.53 636.31,276.43 665.00,307.29
             680.63,324.10 690.62,341.10 699.65,362.00
             699.65,362.00 708.09,384.00 708.09,384.00
             713.04,401.26 718.97,434.18 719.00,452.00
             719.00,452.00 719.00,489.00 719.00,489.00
             719.00,491.67 718.62,496.15 720.74,498.10
             722.46,499.68 733.15,501.67 736.00,502.28
             736.00,502.28 762.00,510.00 762.00,510.00
             765.00,503.17 769.69,484.68 771.20,477.00
             771.20,477.00 773.75,463.00 773.75,463.00
             773.75,463.00 779.57,444.00 779.57,444.00
             779.57,444.00 782.74,429.00 782.74,429.00
             782.74,429.00 790.77,399.00 790.77,399.00
             790.77,399.00 794.89,379.00 794.89,379.00
             794.89,379.00 800.26,361.00 800.26,361.00
             800.26,361.00 804.67,342.00 804.67,342.00
             804.67,342.00 813.33,308.00 813.33,308.00
             813.33,308.00 814.75,299.00 814.75,299.00
             815.55,295.70 819.54,286.17 817.89,283.56
             816.62,281.54 804.03,278.92 801.00,277.98
             796.89,276.70 787.87,273.23 784.00,273.38
             778.99,273.57 772.81,278.29 768.00,280.24
             768.00,280.24 758.00,283.87 758.00,283.87
             758.00,283.87 748.00,288.89 748.00,288.89
             748.00,288.89 727.00,299.00 727.00,299.00
             723.51,293.14 714.37,285.57 709.17,280.75
             709.17,280.75 678.88,255.92 678.88,255.92
             673.09,251.46 664.95,245.04 658.00,243.00
             661.02,235.88 663.33,228.65 665.30,221.17
             665.30,221.17 667.35,211.17 667.35,211.17
             670.37,202.36 676.10,191.47 674.00,182.00
             674.00,182.00 671.00,183.00 671.00,183.00
             667.88,179.15 654.19,176.14 649.00,174.87
             649.00,174.87 640.00,171.45 640.00,171.45
             631.59,168.52 621.77,165.08 613.00,164.00
             613.00,164.00 605.03,189.00 605.03,189.00
             605.03,189.00 602.39,202.09 602.39,202.09
             602.39,202.09 597.00,218.00 597.00,218.00
             581.84,211.35 565.31,208.15 549.00,206.00
             549.00,206.00 550.52,197.00 550.52,197.00
             550.52,197.00 554.02,185.00 554.02,185.00
             556.86,175.92 558.26,176.12 560.18,165.61
             560.76,162.45 563.29,154.60 562.36,152.22
             561.15,149.09 556.17,148.55 553.28,147.32
             544.13,143.44 541.93,144.50 533.00,142.12
             528.59,140.94 525.57,138.99 521.00,139.00
             518.23,135.44 507.59,133.65 503.00,133.00 Z" />             
</svg>
